<?xml version="1.0" standalone="no"?>
<!DOCTYPE svg PUBLIC "-//W3C//DTD SVG 20010904//EN"
 "http://www.w3.org/TR/2001/REC-SVG-20010904/DTD/svg10.dtd">
<svg version="1.0" xmlns="http://www.w3.org/2000/svg"
 width="417.000000pt" height="417.000000pt" viewBox="0 0 417.000000 417.000000"
 preserveAspectRatio="xMidYMid meet">
<metadata>
Created by potrace 1.14, written by Peter Selinger 2001-2017
</metadata>
<g transform="translate(0.000000,417.000000) scale(0.100000,-0.100000)"
fill="#000000" stroke="none">
<path d="M2685 3873 c3 -48 8 -108 11 -133 9 -95 12 -257 5 -268 -9 -14 -82
22 -251 124 -310 189 -515 219 -716 109 -141 -77 -622 -372 -849 -520 -596
-388 -859 -569 -874 -602 -12 -25 -5 -52 13 -54 55 -5 127 21 238 87 99 59
170 96 174 91 10 -10 14 -153 19 -757 5 -686 13 -1180 21 -1270 23 -300 95
-407 295 -440 146 -24 749 -29 1944 -17 l580 6 74 78 c53 55 84 99 108 150 41
89 50 172 24 205 -43 52 -91 18 -122 -85 -38 -129 -122 -187 -319 -222 -38 -7
-90 -11 -255 -21 -60 -3 -113 -8 -118 -11 -4 -2 -9 2 -12 9 -2 7 -6 269 -9
583 -2 314 -6 581 -9 595 -16 82 -31 113 -82 169 -98 105 -142 114 -595 114
-288 0 -392 -6 -465 -25 -107 -27 -154 -93 -172 -238 -11 -88 -5 -529 12 -955
9 -225 7 -264 -14 -251 -3 3 -70 7 -146 10 -163 7 -308 19 -389 32 -97 16
-156 77 -184 195 -12 46 -15 74 -28 199 -4 36 -7 516 -8 1066 l-2 1002 70 43
c39 24 82 50 96 57 14 7 32 20 41 28 8 8 18 14 22 14 3 0 25 13 49 29 24 15
180 115 348 221 168 106 321 203 340 215 41 27 234 135 270 153 85 40 170 49
250 26 111 -32 330 -156 748 -423 116 -75 220 -140 230 -146 9 -5 19 -12 22
-15 13 -13 737 -470 745 -470 2 0 26 -13 52 -30 53 -34 75 -37 93 -15 34 41
-78 150 -334 325 -224 153 -249 185 -245 314 2 80 14 124 40 146 24 20 36 98
38 235 1 62 4 123 6 136 2 13 6 50 10 83 5 42 13 65 30 82 24 24 28 35 26 65
-3 42 -127 56 -519 58 l-334 2 7 -88z"/>
<path d="M3422 2470 c-7 -11 -19 -48 -27 -83 -36 -151 -1 -276 82 -292 59 -11
66 7 59 145 -3 63 -12 137 -20 163 -24 80 -67 110 -94 67z"/>
<path d="M3368 1831 c-112 -31 -231 -96 -303 -166 -70 -67 -93 -108 -74 -131
20 -24 96 -2 180 52 115 74 227 105 389 108 156 3 275 -28 402 -106 46 -28 94
-54 107 -60 31 -11 78 7 86 33 26 80 -124 186 -348 248 -108 30 -122 32 -252
37 -96 3 -133 0 -187 -15z"/>
<path d="M3494 1478 c-72 -10 -149 -46 -197 -95 -20 -20 -37 -39 -38 -42 -8
-57 9 -81 60 -87 22 -3 40 5 71 31 23 19 47 35 53 36 7 0 21 2 32 5 73 15 185
2 270 -32 75 -29 105 -34 128 -20 49 31 -9 120 -106 165 -90 42 -164 52 -273
39z"/>
<path d="M3518 1152 c-84 -51 -57 -232 34 -232 65 0 148 71 148 126 0 25 -46
82 -82 100 -45 23 -70 25 -100 6z"/>
</g>
</svg>
