<?xml version="1.0" standalone="no"?>
<!DOCTYPE svg PUBLIC "-//W3C//DTD SVG 20010904//EN"
 "http://www.w3.org/TR/2001/REC-SVG-20010904/DTD/svg10.dtd">
<svg version="1.0" xmlns="http://www.w3.org/2000/svg"
 width="100.000000pt" height="100.000000pt" viewBox="0 0 100.000000 100.000000"
 preserveAspectRatio="xMidYMid meet">

<g transform="translate(0.000000,100.000000) scale(0.100000,-0.100000)"
fill="#000000" stroke="none">
<path d="M647 890 c3 -33 3 -60 0 -60 -4 0 -29 14 -57 31 -71 43 -110 52 -157
36 -39 -14 -426 -262 -431 -277 -8 -21 21 -18 57 5 23 14 43 25 46 25 3 0 5
-117 5 -260 0 -286 4 -307 58 -329 20 -8 113 -11 325 -9 l297 3 25 26 c29 29
39 84 15 84 -8 0 -16 -10 -18 -21 -6 -39 -38 -58 -108 -62 l-64 -4 0 151 c0
148 -1 153 -25 176 -23 24 -30 25 -140 25 -163 0 -159 5 -153 -198 l5 -154
-75 4 c-117 8 -112 -6 -112 323 l0 273 63 39 c235 150 240 153 276 153 29 0
75 -26 244 -135 114 -74 212 -135 217 -135 29 0 2 32 -60 74 -64 42 -70 49
-70 81 0 19 5 35 10 35 6 0 10 28 10 64 0 40 4 66 12 68 6 2 8 10 4 16 -5 8
-40 12 -106 12 l-98 0 5 -60z"/>
<path d="M815 577 c-10 -38 -2 -71 18 -75 16 -3 18 3 15 44 -3 52 -24 70 -33
31z"/>
<path d="M815 441 c-39 -10 -66 -25 -88 -49 -28 -30 -3 -37 36 -10 46 33 142
33 187 -1 22 -15 35 -20 42 -13 34 34 -104 90 -177 73z"/>
<path d="M808 345 c-16 -9 -28 -22 -28 -30 0 -17 26 -20 35 -5 8 13 61 13 87
-1 29 -15 43 3 19 25 -26 24 -81 29 -113 11z"/>
<path d="M834 265 c-8 -21 2 -45 19 -45 8 0 20 7 27 15 10 12 10 18 0 30 -7 8
-19 15 -27 15 -7 0 -16 -7 -19 -15z"/>
</g>
</svg>
